<svg xmlns="http://www.w3.org/2000/svg" viewBox="0 0 512 512" role="img" aria-label="Bird Optics Lab thumbnail">
  <defs>
    <linearGradient id="bg" x1="0" y1="0" x2="1" y2="1">
      <stop offset="0%" stop-color="#dbe8d2"/>
      <stop offset="52%" stop-color="#b8c9a8"/>
      <stop offset="52.5%" stop-color="#9c7b5a"/>
      <stop offset="100%" stop-color="#6c5947"/>
    </linearGradient>
    <linearGradient id="lens" x1="0" y1="0" x2="0" y2="1">
      <stop offset="0%" stop-color="#2f4333"/>
      <stop offset="100%" stop-color="#18211a"/>
    </linearGradient>
  </defs>
  <rect width="512" height="512" rx="88" fill="url(#bg)"/>
  <circle cx="198" cy="218" r="122" fill="#f4efdf" opacity="0.85"/>
  <circle cx="314" cy="218" r="122" fill="#f4efdf" opacity="0.72"/>
  <circle cx="198" cy="218" r="96" fill="none" stroke="#243225" stroke-width="28"/>
  <circle cx="314" cy="218" r="96" fill="none" stroke="#243225" stroke-width="28"/>
  <rect x="230" y="188" width="52" height="60" rx="18" fill="url(#lens)"/>
  <rect x="104" y="286" width="302" height="22" rx="11" fill="#9f7954"/>
  <rect x="236" y="220" width="26" height="108" rx="10" fill="#b08961"/>
  <ellipse cx="258" cy="204" rx="52" ry="38" fill="#251f1c"/>
  <circle cx="295" cy="184" r="16" fill="#251f1c"/>
  <path d="M205 208 L168 224 L197 194 Z" fill="#251f1c"/>
  <path d="M309 181 L333 188 L310 198 Z" fill="#cf9650"/>
  <path d="M272 240 L266 276" stroke="#4f3f34" stroke-width="6" stroke-linecap="round"/>
  <path d="M286 240 L281 274" stroke="#4f3f34" stroke-width="6" stroke-linecap="round"/>
  <text x="256" y="432" text-anchor="middle" font-family="Georgia, serif" font-size="40" fill="#1f2a20">Bird Optics Lab</text>
</svg>
