<svg xmlns="http://www.w3.org/2000/svg" viewBox="0 0 512 512" width="512" height="512">
  <defs>
    <linearGradient id="woodGrad" x1="0%" y1="0%" x2="100%" y2="100%">
      <stop offset="0%" stop-color="#2a1810"/>
      <stop offset="50%" stop-color="#3d2318"/>
      <stop offset="100%" stop-color="#1e100a"/>
    </linearGradient>
    <linearGradient id="metalGrad" x1="0%" y1="0%" x2="0%" y2="100%">
      <stop offset="0%" stop-color="#e8ecf1"/>
      <stop offset="35%" stop-color="#a6b1bc"/>
      <stop offset="70%" stop-color="#6a7582"/>
      <stop offset="100%" stop-color="#d8e0e8"/>
    </linearGradient>
    <radialGradient id="holeGrad" cx="50%" cy="50%" r="50%">
      <stop offset="60%" stop-color="#0a0503"/>
      <stop offset="100%" stop-color="#000"/>
    </radialGradient>
  </defs>
  
  <!-- Background -->
  <rect width="512" height="512" fill="#12100e"/>
  
  <!-- Kalimba body -->
  <path d="M64 40 L448 40 Q480 40 480 72 L480 440 Q480 472 448 472 L64 472 Q32 472 32 440 L32 72 Q32 40 64 40 Z" fill="url(#woodGrad)"/>
  
  <!-- Wood grain lines -->
  <g stroke="#1e100a" stroke-width="1" opacity="0.6">
    <line x1="64" y1="80" x2="448" y2="80"/>
    <line x1="64" y1="120" x2="448" y2="120"/>
    <line x1="64" y1="160" x2="448" y2="160"/>
    <line x1="64" y1="200" x2="448" y2="200"/>
    <line x1="64" y1="240" x2="448" y2="240"/>
    <line x1="64" y1="280" x2="448" y2="280"/>
    <line x1="64" y1="320" x2="448" y2="320"/>
    <line x1="64" y1="360" x2="448" y2="360"/>
    <line x1="64" y1="400" x2="448" y2="400"/>
  </g>
  
  <!-- Soundhole -->
  <circle cx="256" cy="380" r="60" fill="url(#holeGrad)"/>
  <circle cx="256" cy="380" r="64" fill="none" stroke="#2a1810" stroke-width="4"/>
  <circle cx="256" cy="380" r="68" fill="none" stroke="#543223" stroke-width="2"/>
  
  <!-- Bridge assembly -->
  <rect x="56" y="60" width="400" height="12" rx="6" fill="#2a2a2a"/>
  <rect x="72" y="90" width="368" height="8" rx="4" fill="url(#metalGrad)"/>
  <rect x="80" y="115" width="352" height="14" rx="3" fill="#180d07"/>
  <rect x="92" y="117" width="328" height="4" rx="2" fill="#7a848f"/>
  
  <!-- Tines (17 keys) -->
  <g id="tines">
    <!-- Center tine (C4) - longest -->
    <path d="M240 145 L240 340 Q240 350 248 350 L264 350 Q272 350 272 340 L272 145 Z" fill="url(#metalGrad)"/>
    
    <!-- Left side tines (going up from center) -->
    <path d="M216 155 L216 320 Q216 328 222 328 L230 328 Q236 328 236 320 L236 155 Z" fill="url(#metalGrad)"/>
    <path d="M192 165 L192 300 Q192 306 198 306 L204 306 Q210 306 210 300 L210 165 Z" fill="url(#metalGrad)"/>
    <path d="M168 175 L168 280 Q168 284 174 284 L180 284 Q186 284 186 280 L186 175 Z" fill="url(#metalGrad)"/>
    <path d="M144 185 L144 260 Q144 262 150 262 L156 262 Q162 262 162 260 L162 185 Z" fill="url(#metalGrad)"/>
    <path d="M120 195 L120 240 Q120 240 126 240 L132 240 Q138 240 138 240 L132 195 Z" fill="url(#metalGrad)"/>
    <path d="M96 205 L96 220 Q96 218 102 218 L108 218 Q114 218 114 220 L108 205 Z" fill="url(#metalGrad)"/>
    <path d="M72 215 L72 200 Q72 196 78 196 L84 196 Q90 196 90 200 L84 215 Z" fill="url(#metalGrad)"/>
    
    <!-- Right side tines (going up from center) -->
    <path d="M272 155 L272 320 Q272 328 278 328 L286 328 Q292 328 292 320 L292 155 Z" fill="url(#metalGrad)"/>
    <path d="M296 165 L296 300 Q296 306 302 306 L308 306 Q314 306 314 300 L314 165 Z" fill="url(#metalGrad)"/>
    <path d="M320 175 L320 280 Q320 284 326 284 L332 284 Q338 284 338 280 L338 175 Z" fill="url(#metalGrad)"/>
    <path d="M344 185 L344 260 Q344 262 350 262 L356 262 Q362 262 362 260 L362 185 Z" fill="url(#metalGrad)"/>
    <path d="M368 195 L368 240 Q368 240 374 240 L380 240 Q386 240 386 240 L380 195 Z" fill="url(#metalGrad)"/>
    <path d="M392 205 L392 220 Q392 218 398 218 L404 218 Q410 218 410 220 L404 205 Z" fill="url(#metalGrad)"/>
    <path d="M416 215 L416 200 Q416 196 422 196 L428 196 Q434 196 434 200 L428 215 Z" fill="url(#metalGrad)"/>
  </g>
  
  <!-- Highlight on tines -->
  <g stroke="rgba(255,255,255,0.4)" stroke-width="1" fill="none">
    <path d="M242 145 L242 340"/>
    <path d="M218 155 L218 320"/>
    <path d="M194 165 L194 300"/>
    <path d="M170 175 L170 280"/>
    <path d="M146 185 L146 260"/>
    <path d="M122 195 L122 240"/>
    <path d="M98 205 L98 220"/>
    <path d="M74 215 L74 200"/>
    <path d="M274 155 L274 320"/>
    <path d="M298 165 L298 300"/>
    <path d="M322 175 L322 280"/>
    <path d="M346 185 L346 260"/>
    <path d="M370 195 L370 240"/>
    <path d="M394 205 L394 220"/>
    <path d="M418 215 L418 200"/>
  </g>
</svg>