<svg xmlns="http://www.w3.org/2000/svg" viewBox="0 0 512 320" role="img" aria-label="Micro City thumbnail">
  <defs>
    <linearGradient id="grass" x1="0" y1="0" x2="1" y2="1">
      <stop offset="0%" stop-color="#1f8a31"/>
      <stop offset="100%" stop-color="#0e5d1f"/>
    </linearGradient>
    <linearGradient id="road" x1="0" y1="0" x2="0" y2="1">
      <stop offset="0%" stop-color="#625f4f"/>
      <stop offset="100%" stop-color="#484637"/>
    </linearGradient>
    <linearGradient id="roof" x1="0" y1="0" x2="1" y2="1">
      <stop offset="0%" stop-color="#ff4438"/>
      <stop offset="100%" stop-color="#b81818"/>
    </linearGradient>
    <filter id="shadow" x="-20%" y="-20%" width="140%" height="140%">
      <feDropShadow dx="0" dy="6" stdDeviation="6" flood-color="#000000" flood-opacity="0.25"/>
    </filter>
  </defs>

  <rect width="512" height="320" fill="url(#grass)"/>

  <g opacity="0.18" fill="#0a4215">
    <rect x="24" y="22" width="20" height="20"/>
    <rect x="46" y="44" width="10" height="10"/>
    <rect x="418" y="34" width="14" height="14"/>
    <rect x="438" y="18" width="18" height="18"/>
    <rect x="406" y="52" width="12" height="12"/>
    <rect x="470" y="246" width="14" height="14"/>
    <rect x="448" y="258" width="12" height="12"/>
  </g>

  <g filter="url(#shadow)">
    <rect x="182" y="0" width="64" height="320" fill="url(#road)"/>
    <rect x="266" y="0" width="64" height="320" fill="url(#road)"/>
    <rect x="0" y="154" width="512" height="64" fill="url(#road)"/>
  </g>

  <g fill="#cac3a4" opacity="0.95">
    <rect x="176" y="0" width="6" height="320"/>
    <rect x="246" y="0" width="6" height="320"/>
    <rect x="260" y="0" width="6" height="320"/>
    <rect x="330" y="0" width="6" height="320"/>
    <rect x="0" y="148" width="512" height="6"/>
    <rect x="0" y="218" width="512" height="6"/>
  </g>

  <g fill="#f2efda" opacity="0.8">
    <rect x="211" y="16" width="6" height="20"/>
    <rect x="211" y="52" width="6" height="20"/>
    <rect x="211" y="88" width="6" height="20"/>
    <rect x="211" y="124" width="6" height="20"/>
    <rect x="295" y="16" width="6" height="20"/>
    <rect x="295" y="52" width="6" height="20"/>
    <rect x="295" y="88" width="6" height="20"/>
    <rect x="295" y="124" width="6" height="20"/>
    <rect x="295" y="232" width="6" height="20"/>
    <rect x="295" y="268" width="6" height="20"/>
    <rect x="20" y="183" width="22" height="6"/>
    <rect x="62" y="183" width="22" height="6"/>
    <rect x="104" y="183" width="22" height="6"/>
    <rect x="386" y="183" width="22" height="6"/>
    <rect x="428" y="183" width="22" height="6"/>
    <rect x="470" y="183" width="22" height="6"/>
  </g>

  <g filter="url(#shadow)">
    <path d="M0 40h118v118H0z" fill="url(#roof)"/>
    <path d="M0 202h98v94H0z" fill="url(#roof)"/>
    <path d="M362 54h150v102H362z" fill="url(#roof)"/>
    <path d="M372 236h140v84H372z" fill="url(#roof)"/>
  </g>

  <g fill="#efdccc">
    <rect x="38" y="78" width="72" height="54"/>
    <rect x="16" y="228" width="60" height="48"/>
    <rect x="392" y="88" width="88" height="52"/>
    <rect x="398" y="252" width="90" height="46"/>
  </g>

  <g fill="#cab3aa">
    <rect x="54" y="84" width="10" height="10"/>
    <rect x="68" y="84" width="10" height="10"/>
    <rect x="82" y="84" width="10" height="10"/>
    <rect x="96" y="84" width="10" height="10"/>
    <rect x="54" y="98" width="10" height="10"/>
    <rect x="68" y="98" width="10" height="10"/>
    <rect x="82" y="98" width="10" height="10"/>
    <rect x="96" y="98" width="10" height="10"/>
    <rect x="406" y="94" width="10" height="10"/>
    <rect x="420" y="94" width="10" height="10"/>
    <rect x="434" y="94" width="10" height="10"/>
    <rect x="448" y="94" width="10" height="10"/>
    <rect x="406" y="108" width="10" height="10"/>
    <rect x="420" y="108" width="10" height="10"/>
    <rect x="434" y="108" width="10" height="10"/>
    <rect x="448" y="108" width="10" height="10"/>
  </g>

  <g fill="#a39274">
    <rect x="123" y="34" width="42" height="106"/>
    <rect x="346" y="32" width="16" height="118"/>
    <rect x="116" y="226" width="184" height="22"/>
  </g>

  <g fill="#3f2214">
    <rect x="50" y="114" width="18" height="18"/>
    <rect x="424" y="122" width="20" height="18"/>
  </g>

  <g fill="#28150d" opacity="0.3">
    <rect x="40" y="142" width="84" height="12"/>
    <rect x="382" y="146" width="108" height="10"/>
    <rect x="390" y="302" width="110" height="10"/>
  </g>

  <g fill="#174d16">
    <circle cx="160" cy="64" r="14"/>
    <circle cx="146" cy="80" r="10"/>
    <circle cx="352" cy="78" r="14"/>
    <circle cx="338" cy="94" r="10"/>
    <circle cx="154" cy="264" r="12"/>
    <circle cx="338" cy="266" r="12"/>
  </g>
  <g fill="#6a3e1f">
    <rect x="158" y="74" width="4" height="12"/>
    <rect x="350" y="88" width="4" height="12"/>
    <rect x="152" y="272" width="4" height="10"/>
    <rect x="336" y="274" width="4" height="10"/>
  </g>

  <g>
    <rect x="196" y="96" width="12" height="22" rx="2" fill="#c93e3e"/>
    <rect x="199" y="100" width="6" height="7" fill="#9fc5da"/>
    <rect x="200" y="158" width="22" height="12" rx="2" fill="#d5b33d"/>
    <rect x="204" y="161" width="7" height="6" fill="#9fc5da"/>
    <rect x="286" y="128" width="12" height="22" rx="2" fill="#8c5f40"/>
    <rect x="289" y="132" width="6" height="7" fill="#9fc5da"/>
    <rect x="300" y="154" width="12" height="22" rx="2" fill="#c93e3e"/>
    <rect x="303" y="158" width="6" height="7" fill="#9fc5da"/>
    <rect x="386" y="170" width="22" height="12" rx="2" fill="#d5b33d"/>
    <rect x="390" y="173" width="7" height="6" fill="#9fc5da"/>
    <rect x="420" y="174" width="22" height="12" rx="2" fill="#d9d9d9"/>
    <rect x="424" y="177" width="7" height="6" fill="#9fc5da"/>
    <rect x="454" y="178" width="22" height="12" rx="2" fill="#6d4a3d"/>
    <rect x="458" y="181" width="7" height="6" fill="#9fc5da"/>
  </g>

  <g font-family="system-ui, sans-serif" font-weight="800" letter-spacing="3">
    <text x="28" y="42" fill="#ffe6b0" font-size="34">MICRO</text>
    <text x="28" y="76" fill="#d7f4ff" font-size="34">CITY</text>
  </g>
</svg>