<svg xmlns="http://www.w3.org/2000/svg" viewBox="0 0 640 360" role="img" aria-labelledby="title desc">
  <title id="title">Pocket Radar thumbnail</title>
  <desc id="desc">A green aviation radar sweep with aircraft markers and range rings.</desc>
  <defs>
    <radialGradient id="bg" cx="50%" cy="50%" r="68%">
      <stop offset="0%" stop-color="#103724" />
      <stop offset="55%" stop-color="#0a2016" />
      <stop offset="100%" stop-color="#07110d" />
    </radialGradient>
    <radialGradient id="glow" cx="50%" cy="50%" r="55%">
      <stop offset="0%" stop-color="#7cffb2" stop-opacity="0.28" />
      <stop offset="70%" stop-color="#7cffb2" stop-opacity="0.06" />
      <stop offset="100%" stop-color="#7cffb2" stop-opacity="0" />
    </radialGradient>
    <linearGradient id="sweep" x1="0%" x2="100%" y1="50%" y2="50%">
      <stop offset="0%" stop-color="#7cffb2" stop-opacity="0" />
      <stop offset="80%" stop-color="#7cffb2" stop-opacity="0.15" />
      <stop offset="100%" stop-color="#caffdf" stop-opacity="0.9" />
    </linearGradient>
  </defs>
  <rect width="640" height="360" fill="#06100c" />
  <rect width="640" height="360" fill="url(#bg)" />
  <circle cx="320" cy="190" r="150" fill="url(#glow)" />
  <g transform="translate(320 190)" stroke="#7cffb2" stroke-opacity="0.28" fill="none">
    <circle r="150" />
    <circle r="112" />
    <circle r="75" />
    <circle r="37" />
    <path d="M-150 0H150" />
    <path d="M0-150V150" />
    <path d="M-106 -106L106 106" stroke-opacity="0.14" />
    <path d="M106 -106L-106 106" stroke-opacity="0.14" />
  </g>
  <g transform="translate(320 190)">
    <path d="M0 0L104-104A148 148 0 0 0 148 0Z" fill="url(#sweep)" />
    <path d="M0 0L150 0" stroke="#bfffd8" stroke-width="2.5" stroke-linecap="round" />
  </g>
  <g fill="#d8ffea" font-family="Inter, Arial, sans-serif" font-size="15" font-weight="700">
    <rect x="390" y="96" width="98" height="32" rx="7" fill="#0b1a12" fill-opacity="0.9" stroke="#7cffb2" stroke-opacity="0.45" />
    <text x="399" y="117">BAW223N</text>
    <rect x="138" y="227" width="92" height="32" rx="7" fill="#0b1a12" fill-opacity="0.9" stroke="#7cffb2" stroke-opacity="0.45" />
    <text x="147" y="248">RYR69UR</text>
    <rect x="355" y="238" width="92" height="32" rx="7" fill="#0b1a12" fill-opacity="0.9" stroke="#7cffb2" stroke-opacity="0.45" />
    <text x="364" y="259">AJD019T</text>
  </g>
  <g stroke="#7cffb2" stroke-width="2" fill="#0b1b12">
    <rect x="377" y="139" width="10" height="10" transform="rotate(45 382 144)" />
    <rect x="229" y="214" width="10" height="10" transform="rotate(45 234 219)" />
    <rect x="372" y="216" width="10" height="10" transform="rotate(45 377 221)" />
  </g>
  <circle cx="320" cy="190" r="7" fill="#7cffb2" fill-opacity="0.25" stroke="#d6ffe6" stroke-opacity="0.9" />
  <text x="34" y="56" fill="#d8ffea" font-family="Inter, Arial, sans-serif" font-size="34" font-weight="800">Pocket Radar</text>
  <text x="36" y="84" fill="#8dd9af" font-family="Inter, Arial, sans-serif" font-size="16">Live ATC-style scope around your own location</text>
</svg>