<svg xmlns="http://www.w3.org/2000/svg" viewBox="0 0 512 320" role="img" aria-label="Sandfront Command thumbnail">
  <defs>
    <linearGradient id="sky" x1="0" y1="0" x2="0" y2="1">
      <stop offset="0%" stop-color="#5a3722"/>
      <stop offset="100%" stop-color="#25140d"/>
    </linearGradient>
    <linearGradient id="sand" x1="0" y1="0" x2="1" y2="1">
      <stop offset="0%" stop-color="#cc9250"/>
      <stop offset="100%" stop-color="#7a4f30"/>
    </linearGradient>
  </defs>
  <rect width="512" height="320" fill="url(#sky)"/>
  <circle cx="396" cy="68" r="42" fill="#f0be76" opacity="0.8"/>
  <path d="M0 190 C80 160 140 210 220 192 C300 174 360 202 512 154 L512 320 L0 320 Z" fill="url(#sand)"/>
  <path d="M0 226 C84 210 148 238 216 224 C306 206 382 248 512 214 L512 320 L0 320 Z" fill="#a46f42" opacity="0.9"/>
  <rect x="92" y="126" width="84" height="60" rx="8" fill="#5f422d"/>
  <rect x="80" y="112" width="108" height="28" rx="10" fill="#836248"/>
  <rect x="102" y="126" width="64" height="12" rx="6" fill="#49c8ff"/>
  <rect x="116" y="94" width="38" height="24" rx="6" fill="#f7dfa0"/>
  <rect x="124" y="150" width="22" height="36" rx="4" fill="#2b1b12"/>
  <rect x="338" y="148" width="58" height="32" rx="8" fill="#63442c"/>
  <rect x="344" y="134" width="46" height="18" rx="8" fill="#ff7e4b"/>
  <rect x="382" y="128" width="38" height="8" rx="4" fill="#f7d78e"/>
  <ellipse cx="370" cy="214" rx="28" ry="9" fill="#1d110b" opacity="0.35"/>
  <rect x="352" y="198" width="36" height="18" rx="5" fill="#665846"/>
  <rect x="358" y="190" width="24" height="10" rx="3" fill="#ff7e4b"/>
  <rect x="384" y="188" width="26" height="5" rx="2" fill="#f7d78e"/>
  <ellipse cx="150" cy="236" rx="18" ry="7" fill="#1d110b" opacity="0.35"/>
  <rect x="142" y="210" width="16" height="24" rx="4" fill="#49c8ff"/>
  <rect x="139" y="220" width="6" height="16" rx="3" fill="#f5d3a0"/>
  <rect x="155" y="220" width="6" height="16" rx="3" fill="#f5d3a0"/>
  <ellipse cx="258" cy="220" rx="22" ry="8" fill="#1d110b" opacity="0.32"/>
  <path d="M242 208 L252 182 L266 200 L278 178 L290 210 Z" fill="#ffbd58"/>
  <path d="M246 208 L254 192 L264 198 L276 184 L286 210 Z" fill="#ffe29f"/>
  <text x="36" y="58" fill="#ffe2ab" font-size="34" font-family="system-ui, sans-serif" font-weight="700" letter-spacing="3">SANDFRONT</text>
  <text x="38" y="92" fill="#49c8ff" font-size="21" font-family="system-ui, sans-serif" letter-spacing="5">COMMAND</text>
</svg>