<svg xmlns="http://www.w3.org/2000/svg" viewBox="0 0 640 360" role="img" aria-labelledby="title desc">
  <title id="title">Shunter Yard thumbnail</title>
  <desc id="desc">A dusty miniature diesel shunter beside a parcels wagon in a small goods yard.</desc>
  <defs>
    <linearGradient id="sky" x1="0" y1="0" x2="0" y2="1">
      <stop offset="0%" stop-color="#d5cec3"/>
      <stop offset="100%" stop-color="#b8ad9a"/>
    </linearGradient>
    <linearGradient id="ground" x1="0" y1="0" x2="1" y2="1">
      <stop offset="0%" stop-color="#988772"/>
      <stop offset="100%" stop-color="#756655"/>
    </linearGradient>
    <pattern id="hazard" width="24" height="24" patternUnits="userSpaceOnUse" patternTransform="rotate(-45)">
      <rect width="24" height="24" fill="#4b4237"/>
      <rect width="12" height="24" fill="#cdb25f"/>
    </pattern>
    <filter id="soft" x="-20%" y="-20%" width="140%" height="140%">
      <feGaussianBlur stdDeviation="8"/>
    </filter>
  </defs>
  <rect width="640" height="360" fill="url(#sky)"/>
  <ellipse cx="320" cy="82" rx="170" ry="32" fill="#fff7e6" opacity="0.45" filter="url(#soft)"/>
  <rect x="64" y="202" width="512" height="102" rx="10" fill="url(#ground)"/>
  <rect x="94" y="230" width="456" height="32" rx="10" fill="#7d776d"/>
  <g opacity="0.9">
    <rect x="112" y="236" width="420" height="8" rx="4" fill="#5d5b58"/>
    <rect x="112" y="248" width="420" height="8" rx="4" fill="#5d5b58"/>
    <g fill="#5f4731">
      <rect x="122" y="232" width="12" height="30" rx="2"/>
      <rect x="170" y="232" width="12" height="30" rx="2"/>
      <rect x="218" y="232" width="12" height="30" rx="2"/>
      <rect x="266" y="232" width="12" height="30" rx="2"/>
      <rect x="314" y="232" width="12" height="30" rx="2"/>
      <rect x="362" y="232" width="12" height="30" rx="2"/>
      <rect x="410" y="232" width="12" height="30" rx="2"/>
      <rect x="458" y="232" width="12" height="30" rx="2"/>
    </g>
  </g>
  <rect x="140" y="180" width="154" height="28" rx="4" fill="#7c6f61"/>
  <rect x="172" y="144" width="86" height="46" rx="5" fill="#887b6f"/>
  <rect x="136" y="158" width="34" height="30" rx="4" fill="#6f6460"/>
  <rect x="260" y="158" width="34" height="30" rx="4" fill="#6f6460"/>
  <rect x="134" y="184" width="10" height="20" fill="url(#hazard)"/>
  <rect x="290" y="184" width="10" height="20" fill="url(#hazard)"/>
  <circle cx="180" cy="214" r="15" fill="#3f3b38"/>
  <circle cx="250" cy="214" r="15" fill="#3f3b38"/>
  <g transform="translate(304 0)">
    <rect x="0" y="180" width="126" height="24" rx="4" fill="#83776c"/>
    <rect x="8" y="144" width="110" height="50" rx="6" fill="#91857b"/>
    <path d="M 8 144 Q 63 106 118 144" fill="#a59a8c"/>
    <rect x="18" y="155" width="24" height="39" rx="4" fill="#7f7165"/>
    <rect x="92" y="155" width="18" height="39" rx="4" fill="#7f7165"/>
    <rect x="56" y="152" width="26" height="40" rx="4" fill="#ece2cf" opacity="0.55"/>
    <circle cx="36" cy="214" r="15" fill="#3f3b38"/>
    <circle cx="96" cy="214" r="15" fill="#3f3b38"/>
  </g>
  <rect x="108" y="170" width="16" height="58" rx="3" fill="#6f5a40"/>
  <rect x="90" y="148" width="34" height="14" rx="2" fill="#8c7758"/>
  <g transform="translate(428 0)" opacity="0.86">
    <rect x="0" y="150" width="10" height="76" rx="3" fill="#755d42"/>
    <rect x="0" y="220" width="72" height="9" rx="4" fill="#755d42"/>
    <rect x="18" y="158" width="48" height="7" rx="2" fill="#947655"/>
    <rect x="18" y="185" width="48" height="7" rx="2" fill="#947655"/>
    <rect x="18" y="212" width="48" height="7" rx="2" fill="#947655"/>
  </g>
  <g transform="translate(472 0)">
    <circle cx="0" cy="182" r="10" fill="#c8ac8e"/>
    <rect x="-8" y="190" width="16" height="36" rx="5" fill="#665c51"/>
    <rect x="-18" y="196" width="12" height="8" rx="4" fill="#665c51"/>
    <rect x="6" y="196" width="12" height="8" rx="4" fill="#665c51"/>
    <rect x="-7" y="226" width="5" height="24" rx="2" fill="#454348"/>
    <rect x="2" y="226" width="5" height="24" rx="2" fill="#454348"/>
    <rect x="-12" y="160" width="24" height="8" rx="3" fill="#7f6f58"/>
  </g>
</svg>